<svg width="32" height="32" viewBox="0 0 32 32" fill="none" xmlns="http://www.w3.org/2000/svg">
<g clip-path="url(#clip0_150_250)">
<path fill-rule="evenodd" clip-rule="evenodd" d="M25.9459 25.9459V11.2432V5.18919C25.9459 2.33514 23.6108 0 20.7568 0H10.3784C10.3784 2.85405 12.7135 5.18919 15.5676 5.18919H20.7568V11.2432H15.5676V6.48649C11.9784 6.48649 9.08108 3.58919 9.08108 0H0C0 2.85405 2.33513 5.18919 5.18919 5.18919H10.3784V11.2432C4.62703 11.2432 0 15.8703 0 21.6216C0 27.373 4.62703 32 10.3784 32C11.1135 32 11.8486 31.9135 12.5405 31.7838C15.9135 31.1351 18.7676 28.9297 20.3243 25.9459H20.7568C20.7568 28.8 23.0919 31.1351 25.9459 31.1351H31.1351V25.9459H25.9459ZM20.3247 16H15.1355C12.2814 16 9.94629 18.3351 9.94629 21.1892C9.94629 24.0432 12.2814 26.3784 15.1355 26.3784C17.5796 26.3784 19.6432 24.6658 20.1855 22.3814C19.71 22.9729 18.9804 23.3514 18.1625 23.3514C16.7295 23.3514 15.5679 22.1897 15.5679 20.7568C15.5679 19.3238 16.7295 18.1622 18.1625 18.1622C19.065 18.1622 19.8598 18.623 20.3247 19.3221V16Z" fill="#8BAAB7"/>
</g>
<defs>
<clipPath id="clip0_150_250">
<rect width="32" height="32" fill="white"/>
</clipPath>
</defs>
</svg>
