<svg width="21" height="21" viewBox="0 0 21 21" fill="none" xmlns="http://www.w3.org/2000/svg">
<path d="M18.4804 0.090032L18.4991 0.0714674C18.524 0.0715735 18.5457 0.0747738 18.5643 0.0810681C18.583 0.0873625 18.6047 0.0905627 18.6295 0.0906689L18.4618 0.0713082C18.6856 0.0722634 18.8998 0.113575 19.1045 0.195242C19.3093 0.27691 19.4921 0.39888 19.653 0.561153C19.6777 0.586118 19.6994 0.614178 19.7179 0.645331C19.7364 0.676484 19.758 0.704544 19.7828 0.729509L19.653 0.561153C19.8139 0.723427 19.9312 0.910373 20.0048 1.12199C20.0785 1.33361 20.1211 1.5451 20.1326 1.75645L20.0799 18.4804C20.0666 18.6917 20.0191 18.8997 19.9374 19.1044C19.8557 19.3092 19.7337 19.492 19.5715 19.6529C19.2469 19.9746 18.8516 20.1377 18.3855 20.1419C17.9193 20.1461 17.5254 19.9859 17.2036 19.6614C17.0427 19.4991 16.9192 19.3122 16.8331 19.1005C16.747 18.8888 16.7106 18.6773 16.7239 18.4661L16.7968 5.76944L2.86623 19.5815C2.5292 19.9157 2.13074 20.0818 1.67085 20.0798C1.21096 20.0779 0.81393 19.9084 0.479767 19.5713C0.157979 19.2468 -0.00193231 18.8546 3.12716e-05 18.3947C0.00199486 17.9348 0.171491 17.5378 0.508521 17.2036L14.4391 3.39151L1.74225 3.35595C1.51852 3.35499 1.30741 3.31059 1.10891 3.22273C0.910407 3.13487 0.73071 3.00981 0.569817 2.84754C0.433676 2.71023 0.325568 2.5575 0.245493 2.38936C0.165417 2.22122 0.119563 2.0439 0.107929 1.8574L0.071437 1.6708C0.0723922 1.44707 0.113704 1.23283 0.195371 1.02809C0.277038 0.823349 0.399009 0.640531 0.561282 0.479638C0.723556 0.318744 0.907408 0.198339 1.11284 0.118423C1.31827 0.0385072 1.53285 -0.000973189 1.75658 -1.7929e-05L18.4618 0.0713082L18.4804 0.090032Z" fill="white"/>
</svg>
