<svg width="104" height="32" viewBox="0 0 104 32" fill="none" xmlns="http://www.w3.org/2000/svg">
<g clip-path="url(#clip0_150_247)">
<path fill-rule="evenodd" clip-rule="evenodd" d="M25.9459 11.2432V25.9459H31.1351V31.1351H25.9459C23.0919 31.1351 20.7568 28.8 20.7568 25.9459H20.3243C18.7676 28.9297 15.9135 31.1351 12.5405 31.7838C11.8486 31.9135 11.1135 32 10.3784 32C4.62703 32 0 27.373 0 21.6216C0 15.8703 4.62703 11.2432 10.3784 11.2432V5.18919H5.18919C2.33513 5.18919 0 2.85405 0 0H9.08108C9.08108 3.58919 11.9784 6.48649 15.5676 6.48649V11.2432H20.7568V5.18919H15.5676C12.7135 5.18919 10.3784 2.85405 10.3784 0H20.7568C23.6108 0 25.9459 2.33514 25.9459 5.18919V11.2432ZM15.1355 16H20.3247V19.3221C19.8598 18.623 19.065 18.1622 18.1625 18.1622C16.7295 18.1622 15.5679 19.3238 15.5679 20.7568C15.5679 22.1897 16.7295 23.3514 18.1625 23.3514C18.9804 23.3514 19.71 22.9729 20.1855 22.3814C19.6432 24.6658 17.5796 26.3784 15.1355 26.3784C12.2814 26.3784 9.94629 24.0432 9.94629 21.1892C9.94629 18.3351 12.2814 16 15.1355 16ZM31.1353 0H37.1893L40.2163 26.2054H40.7785L45.4055 0H52.6704L57.2542 26.2054H57.8163L60.8866 0H66.6812L62.3136 31.1351H53.3623L49.2109 6.96216H48.6488L44.4109 31.1351H35.4596L31.1353 0ZM68.2378 0H74.2918L77.3189 26.2054H77.881L82.5081 0H89.7729L94.3567 26.2054H94.9189L97.9891 0H103.784L99.4162 31.1351H90.4648L86.3135 6.96216H85.7513L81.5135 31.1351H72.5621L68.2378 0Z" fill="#ABCFDD"/>
</g>
<defs>
<clipPath id="clip0_150_247">
<rect width="104" height="32" fill="white"/>
</clipPath>
</defs>
</svg>
