<svg width="15" height="11" viewBox="0 0 15 11" fill="none" xmlns="http://www.w3.org/2000/svg">
<path d="M14.5 0H0.5C0.367392 0 0.240215 0.0526785 0.146447 0.146447C0.0526784 0.240215 0 0.367392 0 0.5V10.5C0 10.6326 0.0526784 10.7598 0.146447 10.8536C0.240215 10.9473 0.367392 11 0.5 11H14.5C14.6326 11 14.7598 10.9473 14.8536 10.8536C14.9473 10.7598 15 10.6326 15 10.5V0.5C15 0.367392 14.9473 0.240215 14.8536 0.146447C14.7598 0.0526785 14.6326 0 14.5 0ZM14 1V2.64775L7.4829 4.975L1 3.12265V1H14ZM1 10V4.1631L7.36255 5.98095C7.40727 5.99359 7.45353 6 7.5 6C7.55734 6 7.61424 5.99009 7.6682 5.9707L14 3.70935V10H1Z" fill="#8BAAB7"/>
</svg>
