<svg width="24" height="24" viewBox="0 0 24 24" fill="none" xmlns="http://www.w3.org/2000/svg">
<path d="M9.42428 14.0693C9.33867 14.0693 7.45532 14.0693 6.59925 14.0693C6.14268 14.0693 6 13.8981 6 13.47C6 12.3286 6 11.1587 6 10.0172C6 9.56066 6.17121 9.41798 6.59925 9.41798H9.42428C9.42428 9.33237 9.42428 7.6773 9.42428 6.90684C9.42428 5.76541 9.62403 4.68106 10.1947 3.68231C10.794 2.65503 11.6501 1.97017 12.7344 1.57067C13.4478 1.31385 14.1612 1.19971 14.9317 1.19971H17.7282C18.1277 1.19971 18.2989 1.37092 18.2989 1.77042V5.02349C18.2989 5.42299 18.1277 5.5942 17.7282 5.5942C16.9577 5.5942 16.1872 5.5942 15.4168 5.62274C14.6463 5.62274 14.2468 5.9937 14.2468 6.7927C14.2183 7.64877 14.2468 8.4763 14.2468 9.36091H17.5569C18.0135 9.36091 18.1847 9.53212 18.1847 9.98869V13.4415C18.1847 13.8981 18.0421 14.0408 17.5569 14.0408C16.5297 14.0408 14.3324 14.0408 14.2468 14.0408V23.3434C14.2468 23.8285 14.1041 23.9997 13.5905 23.9997C12.392 23.9997 11.222 23.9997 10.0235 23.9997C9.59549 23.9997 9.42428 23.8285 9.42428 23.4005C9.42428 20.4042 9.42428 14.1549 9.42428 14.0693Z" fill="#8BAAB7"/>
</svg>
