<svg width="24" height="24" viewBox="0 0 24 24" fill="none" xmlns="http://www.w3.org/2000/svg">
<path d="M5.45333 7.79834H0.297119V23.9998H5.45333V7.79834Z" fill="#8BAAB7"/>
<path d="M22.3748 9.27862C21.2917 8.04152 19.8591 7.42285 18.078 7.42285C17.4218 7.42285 16.8252 7.50731 16.2887 7.67635C15.7523 7.84528 15.2993 8.08229 14.9294 8.3875C14.5597 8.69271 14.2652 8.97605 14.0467 9.23751C13.8388 9.48586 13.6356 9.77515 13.4372 10.1024V7.79861H8.29639L8.31215 8.58345C8.32271 9.10678 8.32791 10.7198 8.32791 13.4226C8.32791 16.1257 8.31751 19.6515 8.29661 24.0003H13.4372V14.9593C13.4372 14.4035 13.4942 13.9622 13.609 13.6349C13.8279 13.0788 14.1583 12.6132 14.6013 12.2373C15.0442 11.861 15.5935 11.673 16.2499 11.673C17.1455 11.673 17.8046 11.9972 18.2265 12.6457C18.6483 13.2942 18.8592 14.1907 18.8592 15.3351V23.9998H23.9999V14.7143C23.9995 12.3271 23.4582 10.5153 22.3748 9.27862Z" fill="#8BAAB7"/>
<path d="M2.9062 0C2.04172 0 1.34126 0.264496 0.804659 0.792974C0.26811 1.32157 0 1.98891 0 2.79562C0 3.59106 0.260394 4.25611 0.781236 4.79002C1.30191 5.324 1.98951 5.59113 2.84364 5.59113H2.87489C3.74999 5.59113 4.45581 5.32423 4.99219 4.79002C5.52858 4.25611 5.79154 3.59129 5.7812 2.79562C5.7708 1.98896 5.50499 1.32157 4.98431 0.792974C4.46369 0.264267 3.77073 0 2.9062 0Z" fill="#8BAAB7"/>
</svg>
