<svg width="178" height="27" viewBox="0 0 178 27" fill="none" xmlns="http://www.w3.org/2000/svg">
<g clip-path="url(#clip0_5701_459)">
<path d="M4.89478 0.466797H0V25.8641H4.89478V0.466797Z" fill="white"/>
<path d="M25.5921 16.512C24.7587 15.3144 23.8567 14.5076 22.8809 14.1017C26.1723 12.8331 27.8179 10.6257 27.8179 7.48467C27.8179 5.65789 27.359 4.20662 26.436 3.13085C25.5129 2.05 24.131 1.30914 22.2849 0.898119C21.0138 0.60888 19.0042 0.466797 16.2667 0.466797H9.7948V25.8641H14.6949V15.6849H17.0104C17.4587 15.6849 17.9018 15.7255 18.3396 15.8117C18.7773 15.8929 19.0938 16.0096 19.2943 16.1517C19.943 16.5627 20.634 17.3746 21.3671 18.5976C22.1056 19.8205 23.3926 22.246 25.2387 25.8641H30.6609C28.1186 20.8303 26.4307 17.7096 25.5921 16.512ZM20.3017 11.4731C19.6529 11.6913 18.7721 11.7979 17.6486 11.7979H14.6949V4.38929H16.2245C17.7488 4.38929 18.8195 4.43496 19.4419 4.53138C20.0169 4.60242 20.576 4.76987 21.1245 5.03374C21.6731 5.29761 22.0845 5.68834 22.3588 6.20592C22.633 6.72351 22.7702 7.30199 22.7702 7.95151C22.7702 9.70217 21.9473 10.8744 20.3017 11.4731Z" fill="white"/>
<path d="M57.0969 7.8247C56.4851 6.23134 55.5937 4.84604 54.4227 3.66878C53.2518 2.4966 51.8171 1.58828 50.124 0.953984C48.4361 0.319686 46.5795 0 44.554 0C42.5286 0 40.6983 0.319686 38.9841 0.953984C37.2699 1.58828 35.7877 2.48645 34.5482 3.64848C33.3193 4.81559 32.3593 6.21104 31.6789 7.83992C30.9985 9.47387 30.6609 11.2499 30.6609 13.168C30.6609 15.0861 30.9826 16.8673 31.6367 18.5063C32.2907 20.1504 33.219 21.5509 34.4322 22.6977C35.6453 23.8496 37.08 24.7376 38.7468 25.3618C40.4082 25.9859 42.2174 26.2955 44.1584 26.2955C46.0995 26.2955 48.0141 25.9859 49.7284 25.3618C51.4426 24.7376 52.9247 23.8445 54.1643 22.6825C55.3932 21.5205 56.3479 20.1098 57.0125 18.4555C57.6824 16.8013 58.0147 14.9796 58.0147 12.9853C58.0147 11.1383 57.7035 9.41805 57.0969 7.8247ZM50.9573 19.8053C49.3011 21.353 47.0911 22.1243 44.3378 22.1243C43.0139 22.1243 41.7954 21.9264 40.6878 21.5306C39.5696 21.1348 38.5991 20.5513 37.7815 19.785C36.9534 19.0188 36.331 18.0648 35.888 16.9281C35.4502 15.7864 35.2234 14.5229 35.2234 13.1325C35.2234 10.301 36.0884 8.10379 37.8026 6.54595C39.5221 4.98812 41.7533 4.20666 44.5118 4.20666C45.8305 4.20666 47.0436 4.40456 48.1407 4.80037C49.2484 5.19617 50.1925 5.77972 50.9837 6.54595C51.7749 7.31726 52.3815 8.26617 52.8087 9.40791C53.2307 10.5446 53.4469 11.8335 53.4469 13.2746C53.4469 16.0807 52.6188 18.2576 50.9573 19.8053Z" fill="white"/>
<path d="M135.445 7.8247C134.828 6.23134 133.936 4.84604 132.766 3.66878C131.595 2.4966 130.165 1.58828 128.472 0.953984C126.779 0.319686 124.928 0 122.897 0C120.866 0 119.046 0.319686 117.327 0.953984C115.618 1.58828 114.136 2.48645 112.896 3.64848C111.662 4.81559 110.707 6.21104 110.022 7.83992C109.341 9.47387 109.004 11.2499 109.004 13.168C109.004 15.0861 109.331 16.8673 109.985 18.5063C110.639 20.1504 111.567 21.5509 112.78 22.6977C113.988 23.8496 115.423 24.7376 117.095 25.3618C118.756 25.9859 120.56 26.2955 122.507 26.2955C124.453 26.2955 126.357 25.9859 128.076 25.3618C129.785 24.7376 131.268 23.8445 132.507 22.6825C133.741 21.5205 134.696 20.1098 135.361 18.4555C136.03 16.8013 136.363 14.9796 136.363 12.9853C136.363 11.1383 136.052 9.41805 135.445 7.8247ZM129.305 19.8053C127.649 21.353 125.439 22.1243 122.681 22.1243C121.362 22.1243 120.144 21.9264 119.031 21.5306C117.918 21.1348 116.947 20.5513 116.13 19.785C115.302 19.0188 114.674 18.0648 114.236 16.9281C113.793 15.7864 113.571 14.5229 113.571 13.1325C113.571 10.301 114.431 8.10379 116.145 6.54595C117.865 4.98812 120.101 4.20666 122.855 4.20666C124.179 4.20666 125.386 4.40456 126.489 4.80037C127.591 5.19617 128.535 5.77972 129.332 6.54595C130.118 7.31726 130.73 8.26617 131.157 9.40791C131.579 10.5446 131.795 11.8335 131.795 13.2746C131.795 16.0807 130.962 18.2576 129.305 19.8053Z" fill="url(#paint0_linear_5701_459)"/>
<path d="M79.8829 0.466797C79.8829 6.76411 79.8935 12.1328 79.904 16.5729L84.5562 16.6084V0.466797H79.8829Z" fill="url(#paint1_linear_5701_459)"/>
<path d="M66.2904 0.466797H61.4167V25.8641H66.1269C66.1269 15.3855 66.1005 9.40279 66.0531 7.91599C66.7493 8.94609 67.7673 10.3923 69.1018 12.2495C70.4362 14.1067 73.717 18.6483 78.9546 25.8641H84.5562L66.2904 0.466797Z" fill="url(#paint2_linear_5701_459)"/>
<path d="M97.1782 26.2955C98.75 26.2955 100.142 26.1128 101.366 25.7423C102.585 25.3668 103.597 24.8543 104.394 24.1947C105.19 23.535 105.786 22.7586 106.171 21.8706C106.556 20.9876 106.751 20.0235 106.751 18.9934C106.751 17.5066 106.456 16.3243 105.871 15.4515C105.285 14.5736 104.494 13.8328 103.497 13.2188C102.5 12.6098 101.34 12.0263 100.021 11.4732L96.656 10.1082C95.2846 9.53477 94.4301 9.00703 94.0926 8.52496C93.755 8.04797 93.5862 7.52024 93.5862 6.94176C93.5862 6.36328 93.7761 5.81017 94.1506 5.34333C94.5251 4.87141 95.042 4.55172 95.7013 4.36904C96.3606 4.19144 97.0041 4.1001 97.6265 4.1001H106.751V0H97.9641C94.9734 0 92.6737 0.639372 91.065 1.92319C89.4562 3.20701 88.6492 4.92723 88.6492 7.08384C88.6492 8.83957 89.1292 10.2756 90.0892 11.4021C91.0491 12.5337 92.6421 13.5385 94.8574 14.4265L98.2225 15.7915C99.499 16.3192 100.406 16.847 100.955 17.3747C101.503 17.9024 101.778 18.5012 101.778 19.1761C101.778 20.1098 101.424 20.8405 100.712 21.3682C100 21.896 98.8977 22.1598 97.3997 22.1598H88.6492V26.2955H97.1782Z" fill="url(#paint3_linear_5701_459)"/>
<path d="M154.106 11.189H145.957V15.4311H154.106V11.189Z" fill="url(#paint4_linear_5701_459)"/>
<path d="M139.295 0.466797V25.8641H144.195V4.7851H154.892V0.466797H139.295Z" fill="url(#paint5_linear_5701_459)"/>
<path d="M157.92 0.466797V4.7851H165.436V25.8641H170.373V4.7851H178V0.466797H157.92Z" fill="url(#paint6_linear_5701_459)"/>
</g>
<defs>
<linearGradient id="paint0_linear_5701_459" x1="61.459" y1="13.1477" x2="112.949" y2="13.1477" gradientUnits="userSpaceOnUse">
<stop stop-color="white"/>
<stop offset="1" stop-color="#018ABD"/>
</linearGradient>
<linearGradient id="paint1_linear_5701_459" x1="79.8935" y1="8.54014" x2="90.2896" y2="8.54014" gradientUnits="userSpaceOnUse">
<stop stop-color="white"/>
<stop offset="1" stop-color="#018ABD"/>
</linearGradient>
<linearGradient id="paint2_linear_5701_459" x1="61.4589" y1="13.1629" x2="112.949" y2="13.1629" gradientUnits="userSpaceOnUse">
<stop stop-color="white"/>
<stop offset="1" stop-color="#018ABD"/>
</linearGradient>
<linearGradient id="paint3_linear_5701_459" x1="61.459" y1="0" x2="112.949" y2="0" gradientUnits="userSpaceOnUse">
<stop stop-color="white"/>
<stop offset="1" stop-color="#018ABD"/>
</linearGradient>
<linearGradient id="paint4_linear_5701_459" x1="105.29" y1="13.3101" x2="132.191" y2="13.3101" gradientUnits="userSpaceOnUse">
<stop stop-color="white"/>
<stop offset="1" stop-color="#018ABD"/>
</linearGradient>
<linearGradient id="paint5_linear_5701_459" x1="61.459" y1="13.1629" x2="112.949" y2="13.1629" gradientUnits="userSpaceOnUse">
<stop stop-color="white"/>
<stop offset="1" stop-color="#018ABD"/>
</linearGradient>
<linearGradient id="paint6_linear_5701_459" x1="61.4589" y1="13.1629" x2="112.949" y2="13.1629" gradientUnits="userSpaceOnUse">
<stop stop-color="white"/>
<stop offset="1" stop-color="#018ABD"/>
</linearGradient>
<clipPath id="clip0_5701_459">
<rect width="178" height="26.2955" fill="white"/>
</clipPath>
</defs>
</svg>
