<svg width="16" height="16" viewBox="0 0 16 16" fill="none" xmlns="http://www.w3.org/2000/svg">
<g clip-path="url(#clip0_398_719)">
<path d="M15.8301 4.20227L13.815 2.18707C13.8146 2.18675 13.8143 2.18633 13.8141 2.186C13.8137 2.18568 13.8132 2.18536 13.813 2.18503L11.7978 0.169785C11.6891 0.0610779 11.5417 0 11.3879 0C11.2341 0 11.0867 0.0610779 10.978 0.169785L1.21898 9.92866C1.13889 10.0088 1.08407 10.1105 1.06112 10.2214L0.011987 15.3031C-0.0274794 15.4942 0.0318825 15.6923 0.169806 15.8302C0.279626 15.94 0.427567 16 0.579729 16C0.618731 16 0.658012 15.9961 0.696922 15.988L5.7784 14.9388C5.88933 14.9159 5.99104 14.861 6.07113 14.7809L15.8301 5.02207C16.0566 4.79575 16.0566 4.42868 15.8301 4.20227ZM1.97919 11.5088L4.49113 14.0208L1.32565 14.6744L1.97919 11.5088ZM5.66121 13.5512L2.44866 10.3386L11.3879 1.3996L12.5842 2.59597L7.17498 8.00533C6.94857 8.23174 6.94857 8.59877 7.17498 8.82518C7.28814 8.93834 7.43655 8.99496 7.5849 8.99496C7.73326 8.99496 7.88162 8.93834 7.99483 8.82518L13.4041 3.41582L14.6005 4.61219L5.66121 13.5512Z" fill="#8BAAB7"/>
</g>
<defs>
<clipPath id="clip0_398_719">
<rect width="16" height="16" fill="white"/>
</clipPath>
</defs>
</svg>
