<svg width="40" height="40" viewBox="0 0 40 40" fill="none" xmlns="http://www.w3.org/2000/svg">
<g clip-path="url(#clip0_150_183)">
<path d="M9.375 15V2.5C9.37599 2.16878 9.508 1.85142 9.74221 1.61721C9.97642 1.383 10.2938 1.25099 10.625 1.25H29.375C29.7062 1.25099 30.0236 1.383 30.2578 1.61721C30.492 1.85142 30.624 2.16878 30.625 2.5V6.875" stroke="#B6DCEA" stroke-linecap="round" stroke-linejoin="round"/>
<path d="M30.625 24.375V37.5C30.624 37.8312 30.492 38.1486 30.2578 38.3828C30.0236 38.617 29.7062 38.749 29.375 38.75H10.625C10.2938 38.749 9.97642 38.617 9.74221 38.3828C9.508 38.1486 9.37599 37.8312 9.375 37.5V33.75" stroke="#B6DCEA" stroke-linecap="round" stroke-linejoin="round"/>
<path d="M30.625 5.625H11.875" stroke="#B6DCEA" stroke-linecap="round" stroke-linejoin="round"/>
<path d="M30.625 35.625H11.875" stroke="#B6DCEA" stroke-linecap="round" stroke-linejoin="round"/>
<path d="M21.25 3.125H18.75" stroke="#B6DCEA" stroke-linecap="round" stroke-linejoin="round"/>
<path d="M38.75 20.625C38.75 20.9565 38.6183 21.2745 38.3839 21.5089C38.1495 21.7433 37.8315 21.875 37.5 21.875H20.625L22.7588 19.7413C22.8749 19.6251 22.967 19.4873 23.0299 19.3355C23.0927 19.1838 23.125 19.0211 23.125 18.8569V10.625C23.125 10.2935 23.2567 9.97554 23.4911 9.74112C23.7255 9.5067 24.0435 9.375 24.375 9.375H37.5C37.8315 9.375 38.1495 9.5067 38.3839 9.74112C38.6183 9.97554 38.75 10.2935 38.75 10.625V20.625Z" stroke="#B6DCEA" stroke-linecap="round" stroke-linejoin="round"/>
<path d="M30.9375 19.375C33.0563 18.4631 35.625 16.3588 35.625 13.9681C35.625 12.5431 34.875 11.875 33.8231 11.875C33.2149 11.9094 32.6269 12.1054 32.1196 12.4428C31.6124 12.7802 31.2043 13.2467 30.9375 13.7944C30.6707 13.2467 30.2626 12.7802 29.7554 12.4428C29.2481 12.1054 28.6601 11.9094 28.0519 11.875C27 11.875 26.25 12.5431 26.25 13.9681C26.25 16.3588 28.8187 18.4631 30.9375 19.375Z" stroke="#B6DCEA" stroke-linecap="round" stroke-linejoin="round"/>
<path d="M1.25 30C1.25 30.3315 1.3817 30.6495 1.61612 30.8839C1.85054 31.1183 2.16848 31.25 2.5 31.25H19.375L17.2413 29.1162C17.1251 29.0001 17.033 28.8623 16.9701 28.7105C16.9073 28.5588 16.875 28.3961 16.875 28.2319V18.75C16.875 18.4185 16.7433 18.1005 16.5089 17.8661C16.2745 17.6317 15.9565 17.5 15.625 17.5H2.5C2.16848 17.5 1.85054 17.6317 1.61612 17.8661C1.3817 18.1005 1.25 18.4185 1.25 18.75V30Z" stroke="#B6DCEA" stroke-linecap="round" stroke-linejoin="round"/>
<path d="M6.25 23.1581C6.24236 22.9765 6.16311 22.8053 6.02959 22.682C5.89607 22.5587 5.71914 22.4932 5.5375 22.5H4.4625C4.28086 22.4932 4.10393 22.5587 3.97041 22.682C3.83689 22.8053 3.75764 22.9765 3.75 23.1581V28.0919C3.75764 28.2735 3.83689 28.4447 3.97041 28.568C4.10393 28.6913 4.28086 28.7568 4.4625 28.75H5.5375C5.71914 28.7568 5.89607 28.6913 6.02959 28.568C6.16311 28.4447 6.24236 28.2735 6.25 28.0919V26.085" stroke="#B6DCEA" stroke-linecap="round" stroke-linejoin="round"/>
<path d="M6.25 23.125H7.61875C8.625 23.125 9.28125 21.8569 9.55 20.9375C9.75625 20.25 9.89375 20 10.2 20C10.3473 19.9955 10.4938 20.0228 10.6295 20.08C10.7653 20.1372 10.8871 20.223 10.9868 20.3315C11.0864 20.4401 11.1615 20.5688 11.2069 20.7089C11.2523 20.8491 11.267 20.9974 11.25 21.1437C11.1442 21.8322 10.9334 22.5004 10.625 23.125H13.1C13.5 23.125 13.6687 23.4875 13.7312 23.8062C13.7695 23.9562 13.7632 24.1141 13.7133 24.2606C13.6634 24.4071 13.5719 24.5358 13.45 24.6312C13.5414 24.759 13.6043 24.9049 13.6345 25.0591C13.6647 25.2133 13.6615 25.3722 13.625 25.525C13.5935 25.6627 13.5294 25.7907 13.438 25.8984C13.3466 26.0061 13.2307 26.0903 13.1 26.1437C13.2262 26.358 13.2629 26.6134 13.202 26.8545C13.1412 27.0957 12.9878 27.3031 12.775 27.4319C12.8518 27.5472 12.9027 27.6779 12.9243 27.8147C12.9459 27.9516 12.9376 28.0916 12.9 28.225C12.8604 28.3731 12.7738 28.5043 12.6532 28.599C12.5326 28.6937 12.3845 28.7467 12.2312 28.75H8.9125C8.48601 28.7513 8.06486 28.6551 7.68125 28.4687L7.55625 28.4062C7.17264 28.2199 6.75149 28.1237 6.325 28.125H6.25" stroke="#B6DCEA" stroke-linecap="round" stroke-linejoin="round"/>
</g>
<defs>
<clipPath id="clip0_150_183">
<rect width="40" height="40" fill="white"/>
</clipPath>
</defs>
</svg>
