<svg width="40" height="40" viewBox="0 0 40 40" fill="none" xmlns="http://www.w3.org/2000/svg">
<path d="M12.9822 33.3303C12.3323 33.3292 11.7093 33.0705 11.2499 32.6108C10.7904 32.1511 10.532 31.528 10.5312 30.8781C10.5312 30.7331 10.5889 30.594 10.6914 30.4914C10.794 30.3889 10.9331 30.3312 11.0781 30.3312C11.2232 30.3312 11.3623 30.3889 11.4648 30.4914C11.5674 30.594 11.625 30.7331 11.625 30.8781C11.625 31.1469 11.7047 31.4096 11.854 31.633C12.0033 31.8565 12.2156 32.0306 12.4639 32.1335C12.7121 32.2363 12.9854 32.2632 13.2489 32.2107C13.5125 32.1583 13.7546 32.0288 13.9446 31.8388C14.1347 31.6487 14.264 31.4066 14.3164 31.143C14.3688 30.8794 14.3419 30.6062 14.239 30.3579C14.1361 30.1097 13.9619 29.8975 13.7384 29.7482C13.5149 29.5989 13.2522 29.5193 12.9834 29.5194C12.4985 29.5193 12.0244 29.3754 11.6212 29.1059C11.2179 28.8365 10.9037 28.4535 10.7181 28.0054C10.5326 27.5573 10.4841 27.0642 10.5787 26.5886C10.6734 26.1129 10.9069 25.676 11.2499 25.3331C11.5929 24.9902 12.0298 24.7567 12.5055 24.6621C12.9811 24.5675 13.4742 24.6161 13.9222 24.8017C14.3703 24.9873 14.7533 25.3016 15.0227 25.7049C15.2921 26.1081 15.4359 26.5822 15.4359 27.0672C15.4359 27.2122 15.3783 27.3513 15.2758 27.4539C15.1732 27.5564 15.0341 27.6141 14.8891 27.6141C14.744 27.6141 14.6049 27.5564 14.5024 27.4539C14.3998 27.3513 14.3422 27.2122 14.3422 27.0672C14.3422 26.7984 14.2626 26.5357 14.1133 26.3122C13.9641 26.0887 13.7519 25.9145 13.5036 25.8116C13.2554 25.7087 12.9821 25.6818 12.7185 25.7342C12.455 25.7866 12.2128 25.916 12.0228 26.106C11.8327 26.296 11.7033 26.5381 11.6508 26.8017C11.5984 27.0653 11.6253 27.3385 11.7281 27.5868C11.8309 27.8351 12.0051 28.0473 12.2285 28.1966C12.452 28.3459 12.7147 28.4256 12.9834 28.4256C13.3078 28.422 13.6297 28.4827 13.9304 28.6043C14.2312 28.7259 14.5048 28.9059 14.7355 29.134C14.9662 29.3621 15.1493 29.6337 15.2743 29.933C15.3993 30.2324 15.4636 30.5536 15.4636 30.878C15.4636 31.2024 15.3993 31.5235 15.2743 31.8229C15.1493 32.1222 14.9662 32.3938 14.7355 32.6219C14.5048 32.85 14.2312 33.03 13.9304 33.1516C13.6297 33.2732 13.3078 33.334 12.9834 33.3303H12.9822Z" fill="#B6DCEA"/>
<path d="M21.3332 33.3303H18.9826C18.4873 33.3297 18.0125 33.1327 17.6623 32.7825C17.3122 32.4323 17.1152 31.9574 17.1147 31.4622V26.4831C17.1152 25.9879 17.3122 25.513 17.6623 25.1628C18.0125 24.8126 18.4873 24.6156 18.9826 24.615H21.3332C21.4782 24.615 21.6173 24.6726 21.7199 24.7752C21.8224 24.8777 21.8801 25.0168 21.8801 25.1619C21.8801 25.3069 21.8224 25.446 21.7199 25.5486C21.6173 25.6511 21.4782 25.7087 21.3332 25.7087H18.9826C18.7773 25.709 18.5805 25.7907 18.4354 25.9358C18.2903 26.081 18.2087 26.2778 18.2085 26.4831V31.4622C18.2087 31.6675 18.2903 31.8643 18.4354 32.0095C18.5805 32.1546 18.7773 32.2363 18.9826 32.2366H21.3332C21.4782 32.2366 21.6173 32.2942 21.7199 32.3967C21.8224 32.4993 21.8801 32.6384 21.8801 32.7834C21.8801 32.9285 21.8224 33.0676 21.7199 33.1701C21.6173 33.2727 21.4782 33.3303 21.3332 33.3303Z" fill="#B6DCEA"/>
<path d="M21.3332 29.5194H17.6616C17.5166 29.5194 17.3775 29.4618 17.2749 29.3592C17.1724 29.2567 17.1147 29.1176 17.1147 28.9725C17.1147 28.8275 17.1724 28.6884 17.2749 28.5858C17.3775 28.4833 17.5166 28.4257 17.6616 28.4257H21.3332C21.4782 28.4257 21.6173 28.4833 21.7199 28.5858C21.8224 28.6884 21.8801 28.8275 21.8801 28.9725C21.8801 29.1176 21.8224 29.2567 21.7199 29.3592C21.6173 29.4618 21.4782 29.5194 21.3332 29.5194Z" fill="#B6DCEA"/>
<path d="M27.8656 33.3303H25.2541C24.8287 33.3298 24.4209 33.1606 24.1202 32.8597C23.8194 32.5589 23.6504 32.151 23.65 31.7256V26.2188C23.6504 25.7934 23.8196 25.3856 24.1203 25.0849C24.421 24.7841 24.8288 24.6149 25.2541 24.6144H27.8656C28.2908 24.6152 28.6983 24.7845 28.9988 25.0853C29.2993 25.386 29.4683 25.7936 29.4688 26.2188V31.725C29.4685 32.1503 29.2996 32.5581 28.9991 32.8591C28.6986 33.16 28.2909 33.3295 27.8656 33.3303ZM25.2541 25.7088C25.1188 25.7089 24.9892 25.7627 24.8935 25.8583C24.7979 25.9539 24.744 26.0835 24.7438 26.2188V31.725C24.7438 31.8604 24.7975 31.9903 24.8932 32.0861C24.9889 32.1819 25.1187 32.2358 25.2541 32.2359H27.8656C28.0011 32.2357 28.1308 32.1818 28.2266 32.086C28.3223 31.9902 28.3761 31.8604 28.3763 31.725V26.2188C28.3761 26.0834 28.3223 25.9536 28.2265 25.8579C28.1308 25.7621 28.001 25.7083 27.8656 25.7081L25.2541 25.7088Z" fill="#B6DCEA"/>
<path d="M5.97412 23.8216C5.82908 23.8216 5.68998 23.764 5.58742 23.6614C5.48486 23.5588 5.42725 23.4197 5.42725 23.2747V14.2263C5.42774 13.8196 5.58949 13.4298 5.87702 13.1423C6.16455 12.8548 6.55437 12.693 6.961 12.6925H9.35381C9.76043 12.693 10.1503 12.8548 10.4378 13.1423C10.7253 13.4298 10.8871 13.8196 10.8876 14.2263V21.3106C10.8876 21.4557 10.8299 21.5948 10.7274 21.6973C10.6248 21.7999 10.4857 21.8575 10.3407 21.8575C10.1956 21.8575 10.0565 21.7999 9.95398 21.6973C9.85143 21.5948 9.79381 21.4557 9.79381 21.3106V14.2263C9.79364 14.1096 9.74723 13.9978 9.66475 13.9153C9.58227 13.8328 9.47045 13.7864 9.35381 13.7863H6.961C6.84435 13.7864 6.73253 13.8328 6.65005 13.9153C6.56757 13.9978 6.52116 14.1096 6.521 14.2263V23.2747C6.521 23.4197 6.46338 23.5588 6.36082 23.6614C6.25826 23.764 6.11916 23.8216 5.97412 23.8216Z" fill="#B6DCEA"/>
<path d="M13.8669 17.0732C13.7951 17.0732 13.724 17.0591 13.6576 17.0316C13.5912 17.0042 13.5309 16.9639 13.4802 16.9131C13.4294 16.8623 13.3891 16.802 13.3616 16.7356C13.3341 16.6693 13.32 16.5981 13.3201 16.5263V8.9513C13.3205 8.54462 13.4822 8.15471 13.7697 7.86712C14.0573 7.57953 14.4471 7.41773 14.8538 7.41724H17.2501C17.6567 7.41773 18.0466 7.57953 18.3342 7.86712C18.6217 8.15471 18.7834 8.54462 18.7838 8.9513V15.3091C18.7838 15.4542 18.7262 15.5933 18.6236 15.6958C18.5211 15.7984 18.382 15.856 18.2369 15.856C18.0919 15.856 17.9528 15.7984 17.8502 15.6958C17.7477 15.5933 17.6901 15.4542 17.6901 15.3091V8.9513C17.69 8.8346 17.6436 8.7227 17.5611 8.64015C17.4786 8.5576 17.3668 8.51115 17.2501 8.51099H14.8538C14.7371 8.51115 14.6253 8.5576 14.5428 8.64015C14.4603 8.7227 14.4139 8.8346 14.4138 8.9513V16.5263C14.4139 16.5981 14.3997 16.6693 14.3723 16.7356C14.3448 16.802 14.3045 16.8623 14.2537 16.9131C14.2029 16.9639 14.1426 17.0042 14.0763 17.0316C14.0099 17.0591 13.9388 17.0732 13.8669 17.0732Z" fill="#B6DCEA"/>
<path d="M26.1301 19.2119C25.985 19.2119 25.8459 19.1543 25.7434 19.0517C25.6408 18.9491 25.5832 18.81 25.5832 18.665V4.89313C25.583 4.77648 25.5366 4.66466 25.4541 4.58218C25.3716 4.4997 25.2598 4.45329 25.1432 4.45312H22.7501C22.6334 4.45321 22.5215 4.49959 22.439 4.58209C22.3565 4.66459 22.3101 4.77646 22.3101 4.89313V16.1744C22.3101 16.3194 22.2524 16.4585 22.1499 16.5611C22.0473 16.6636 21.9082 16.7212 21.7632 16.7212C21.6181 16.7212 21.479 16.6636 21.3765 16.5611C21.2739 16.4585 21.2163 16.3194 21.2163 16.1744V4.89313C21.2168 4.4865 21.3786 4.09667 21.6661 3.80915C21.9536 3.52162 22.3434 3.35987 22.7501 3.35938H25.1426C25.5492 3.35987 25.939 3.52162 26.2265 3.80915C26.5141 4.09667 26.6758 4.4865 26.6763 4.89313V18.665C26.6763 18.8099 26.6188 18.9489 26.5164 19.0515C26.4139 19.154 26.275 19.2117 26.1301 19.2119Z" fill="#B6DCEA"/>
<path d="M34.0268 23.8257C33.8818 23.8257 33.7427 23.7681 33.6401 23.6655C33.5376 23.5629 33.48 23.4238 33.48 23.2788V8.9513C33.4799 8.8346 33.4335 8.7227 33.351 8.64015C33.2685 8.5576 33.1567 8.51115 33.04 8.51099H30.6472C30.5305 8.51115 30.4186 8.5576 30.3361 8.64015C30.2536 8.7227 30.2072 8.8346 30.2072 8.9513V20.0244C30.2072 20.1695 30.1495 20.3086 30.047 20.4111C29.9444 20.5137 29.8053 20.5713 29.6603 20.5713C29.5152 20.5713 29.3761 20.5137 29.2736 20.4111C29.171 20.3086 29.1134 20.1695 29.1134 20.0244V8.9513C29.1138 8.54462 29.2755 8.15471 29.5631 7.86712C29.8506 7.57953 30.2405 7.41773 30.6472 7.41724H33.04C33.4466 7.41773 33.8365 7.57953 34.1241 7.86712C34.4116 8.15471 34.5733 8.54462 34.5737 8.9513V23.2788C34.5737 23.4238 34.5161 23.5629 34.4135 23.6655C34.311 23.7681 34.1719 23.8257 34.0268 23.8257Z" fill="#B6DCEA"/>
<path d="M13.3125 21.3959C13.2233 21.3959 13.1355 21.374 13.0567 21.3322C12.978 21.2905 12.9106 21.2301 12.8605 21.1563C12.8104 21.0825 12.7791 20.9976 12.7693 20.909C12.7595 20.8204 12.7716 20.7307 12.8044 20.6478C13.1862 19.6717 13.8543 18.834 14.7211 18.2448C15.5878 17.6555 16.6125 17.3423 17.6606 17.3462C17.8057 17.3462 17.9448 17.4038 18.0473 17.5064C18.1499 17.609 18.2075 17.7481 18.2075 17.8931C18.2075 18.0381 18.1499 18.1772 18.0473 18.2798C17.9448 18.3824 17.8057 18.44 17.6606 18.44C16.8322 18.4371 16.0222 18.6849 15.3372 19.1507C14.6521 19.6165 14.1239 20.2785 13.8219 21.05C13.7816 21.1522 13.7114 21.2398 13.6206 21.3016C13.5297 21.3633 13.4223 21.3962 13.3125 21.3959Z" fill="#B6DCEA"/>
<path d="M35.2291 29.895C35.0884 29.8949 34.9531 29.8405 34.8515 29.7432C34.7498 29.6459 34.6895 29.5131 34.6832 29.3725C34.6492 28.5447 34.3656 27.7464 33.8696 27.0827C33.3736 26.419 32.6884 25.9209 31.9041 25.6538C31.8362 25.6304 31.7736 25.5939 31.7199 25.5463C31.6661 25.4987 31.6222 25.441 31.5908 25.3765C31.5593 25.3119 31.5409 25.2418 31.5365 25.1702C31.5322 25.0985 31.542 25.0267 31.5654 24.9588C31.5887 24.8909 31.6253 24.8283 31.6729 24.7746C31.7205 24.7208 31.7782 24.6769 31.8427 24.6455C31.9072 24.614 31.9773 24.5956 32.049 24.5912C32.1207 24.5869 32.1925 24.5966 32.2604 24.62C33.2526 24.9577 34.1194 25.5877 34.7468 26.4273C35.3742 27.2668 35.7329 28.2766 35.7757 29.3238C35.7822 29.4687 35.7309 29.6102 35.6331 29.7173C35.5353 29.8243 35.399 29.8882 35.2541 29.8947L35.2291 29.895Z" fill="#B6DCEA"/>
<path d="M30.92 36.6407H9.08002C7.13507 36.6407 5.26978 35.868 3.8945 34.4927C2.51921 33.1175 1.74658 31.2522 1.74658 29.3072C1.74658 27.3623 2.51921 25.497 3.8945 24.1217C5.26978 22.7464 7.13507 21.9738 9.08002 21.9738C9.25689 21.9738 9.44033 21.9819 9.63283 21.9988C9.89854 20.3386 10.6449 18.7927 11.7797 17.5522C12.9146 16.3117 14.388 15.4309 16.018 15.0188C17.648 14.6067 19.363 14.6812 20.9511 15.2333C22.5391 15.7853 23.9306 16.7907 24.9535 18.125C25.1697 18.1053 25.3681 18.0957 25.5616 18.0957C26.9062 18.0999 28.224 18.4725 29.3719 19.1728C30.5197 19.8731 31.4539 20.8744 32.0728 22.0682C33.895 22.3573 35.5412 23.3229 36.6829 24.7722C37.8246 26.2215 38.3779 28.048 38.2324 29.8873C38.0869 31.7265 37.2533 33.4433 35.8979 34.6951C34.5425 35.9468 32.765 36.6416 30.92 36.6407ZM9.08002 23.0675C7.42515 23.0675 5.83806 23.7249 4.66789 24.8951C3.49773 26.0653 2.84033 27.6523 2.84033 29.3072C2.84033 30.9621 3.49773 32.5492 4.66789 33.7193C5.83806 34.8895 7.42515 35.5469 9.08002 35.5469H30.92C32.5118 35.5477 34.0437 34.9398 35.202 33.8478C36.3602 32.7559 37.0572 31.2624 37.1501 29.6733C37.2431 28.0842 36.725 26.5197 35.7019 25.3001C34.6789 24.0806 33.2283 23.2983 31.6472 23.1135C31.5544 23.1027 31.4659 23.0684 31.3902 23.0137C31.3145 22.9589 31.254 22.8857 31.2147 22.801C30.7119 21.7251 29.9136 20.8143 28.9128 20.1748C27.912 19.5354 26.7501 19.1936 25.5625 19.1894C25.2976 19.1912 25.0331 19.21 24.7706 19.2457C24.6724 19.2587 24.5725 19.2446 24.4817 19.2048C24.391 19.165 24.3129 19.1011 24.256 19.02C23.3701 17.768 22.1221 16.8173 20.6798 16.2958C19.2374 15.7743 17.67 15.7071 16.1883 16.1031C14.7066 16.4992 13.3817 17.3395 12.3919 18.5111C11.4021 19.6826 10.7949 21.1292 10.6519 22.6563C10.645 22.7305 10.623 22.8025 10.5873 22.8679C10.5515 22.9333 10.5028 22.9907 10.444 23.0365C10.3853 23.0824 10.3178 23.1158 10.2457 23.1346C10.1736 23.1534 10.0984 23.1573 10.0247 23.146C9.71229 23.0956 9.39646 23.0694 9.08002 23.0675Z" fill="#B6DCEA"/>
</svg>
