<svg width="16" height="16" viewBox="0 0 16 16" fill="none" xmlns="http://www.w3.org/2000/svg">
<path d="M14.6586 13.6576C13.8775 10.6209 11.1394 8.5 8.00006 8.5C4.86074 8.5 2.12262 10.6209 1.34146 13.6576C1.19806 14.2149 1.32309 14.8193 1.67587 15.2741C2.02852 15.7286 2.58265 16 3.15821 16H12.8419C13.4256 16 13.9657 15.7354 14.3236 15.274C14.6767 14.8189 14.8019 14.2146 14.6586 13.6576ZM13.3359 14.5078C13.2166 14.6617 13.0365 14.75 12.8419 14.75H3.15821C2.96609 14.75 2.78118 14.6595 2.66356 14.5079C2.54418 14.354 2.50356 14.1576 2.55206 13.969C3.19106 11.4849 5.43134 9.75 8.00006 9.75C10.5688 9.75 12.8091 11.4849 13.4481 13.969C13.4957 14.1544 13.4538 14.3558 13.3359 14.5078ZM8.00006 7.5C10.0678 7.5 11.7501 5.81775 11.7501 3.75C11.7501 1.68225 10.0678 0 8.00006 0C5.93231 0 4.25006 1.68225 4.25006 3.75C4.25006 5.81775 5.93231 7.5 8.00006 7.5ZM8.00006 1.25C9.37856 1.25 10.5001 2.3715 10.5001 3.75C10.5001 5.1285 9.37856 6.25 8.00006 6.25C6.62156 6.25 5.50006 5.1285 5.50006 3.75C5.50006 2.3715 6.62152 1.25 8.00006 1.25Z" fill="#8BAAB7"/>
</svg>
