<svg width="40" height="40" viewBox="0 0 40 40" fill="none" xmlns="http://www.w3.org/2000/svg">
<path d="M36.4062 38.3594H3.59375C3.07593 38.3588 2.57948 38.1528 2.21332 37.7867C1.84716 37.4205 1.6412 36.9241 1.64062 36.4062V3.59375C1.6412 3.07593 1.84716 2.57948 2.21332 2.21332C2.57948 1.84716 3.07593 1.6412 3.59375 1.64062H36.4062C36.9241 1.6412 37.4205 1.84716 37.7867 2.21332C38.1528 2.57948 38.3588 3.07593 38.3594 3.59375V36.4062C38.3588 36.9241 38.1528 37.4205 37.7867 37.7867C37.4205 38.1528 36.9241 38.3588 36.4062 38.3594ZM3.59375 2.73438C3.36588 2.73454 3.14739 2.82513 2.98626 2.98626C2.82513 3.14739 2.73454 3.36588 2.73438 3.59375V36.4062C2.73454 36.6341 2.82513 36.8526 2.98626 37.0137C3.14739 37.1749 3.36588 37.2655 3.59375 37.2656H36.4062C36.6341 37.2655 36.8526 37.1749 37.0137 37.0137C37.1749 36.8526 37.2655 36.6341 37.2656 36.4062V3.59375C37.2655 3.36588 37.1749 3.14739 37.0137 2.98626C36.8526 2.82513 36.6341 2.73454 36.4062 2.73438H3.59375Z" fill="#B6DCEA"/>
<path d="M14.7375 28.25C14.6169 28.2502 14.4997 28.2103 14.4044 28.1365L9.30341 24.2078C9.23708 24.1567 9.18336 24.091 9.1464 24.0159C9.10943 23.9407 9.09021 23.8581 9.09021 23.7744C9.09021 23.6906 9.10943 23.608 9.1464 23.5328C9.18336 23.4577 9.23708 23.392 9.30341 23.3409L14.4044 19.4128C14.5195 19.3243 14.6651 19.2852 14.8091 19.3041C14.9531 19.323 15.0837 19.3983 15.1722 19.5134C15.2606 19.6286 15.2997 19.7742 15.2809 19.9182C15.262 20.0622 15.1867 20.1928 15.0715 20.2812L10.5334 23.7744L15.0715 27.2694C15.1622 27.339 15.2288 27.4353 15.2619 27.5447C15.295 27.6542 15.293 27.7712 15.2561 27.8795C15.2193 27.9877 15.1494 28.0816 15.0564 28.1481C14.9633 28.2146 14.8518 28.2502 14.7375 28.25Z" fill="#B6DCEA"/>
<path d="M25.2625 28.2499C25.1483 28.25 25.037 28.2143 24.9441 28.1478C24.8513 28.0814 24.7815 27.9876 24.7447 27.8795C24.7079 27.7714 24.7058 27.6545 24.7387 27.5452C24.7717 27.4359 24.838 27.3396 24.9284 27.2699L29.4666 23.7743L24.9284 20.2812C24.8135 20.1927 24.7384 20.0622 24.7197 19.9183C24.7009 19.7745 24.7401 19.6291 24.8286 19.5141C24.9171 19.3992 25.0476 19.3241 25.1914 19.3054C25.3353 19.2866 25.4807 19.3258 25.5956 19.4143L30.6966 23.3424C30.7629 23.3935 30.8166 23.4592 30.8536 23.5343C30.8905 23.6095 30.9098 23.6921 30.9098 23.7759C30.9098 23.8596 30.8905 23.9422 30.8536 24.0174C30.8166 24.0925 30.7629 24.1582 30.6966 24.2093L25.5956 28.1359C25.5003 28.2098 25.3831 28.25 25.2625 28.2499Z" fill="#B6DCEA"/>
<path d="M17.3629 29.7915C17.2704 29.7914 17.1794 29.7679 17.0984 29.7231C17.0175 29.6783 16.9493 29.6137 16.9001 29.5353C16.8509 29.457 16.8223 29.3674 16.8171 29.2751C16.812 29.1827 16.8303 29.0905 16.8704 29.0072L22.1444 18.0669C22.2074 17.9362 22.3197 17.8359 22.4567 17.7881C22.5936 17.7402 22.7439 17.7487 22.8746 17.8117C23.0052 17.8747 23.1055 17.987 23.1534 18.1239C23.2012 18.2609 23.1927 18.4112 23.1297 18.5419L17.8557 29.4822C17.811 29.5749 17.741 29.6531 17.6538 29.7078C17.5667 29.7626 17.4658 29.7916 17.3629 29.7915Z" fill="#B6DCEA"/>
<path d="M5.53906 5.96219C5.53906 6.10768 5.58221 6.24991 5.66304 6.37088C5.74387 6.49185 5.85876 6.58614 5.99318 6.64182C6.12759 6.69749 6.2755 6.71206 6.4182 6.68368C6.5609 6.65529 6.69197 6.58523 6.79485 6.48235C6.89773 6.37947 6.96779 6.2484 6.99618 6.1057C7.02456 5.963 7.00999 5.81509 6.95432 5.68068C6.89864 5.54626 6.80435 5.43137 6.68338 5.35054C6.56241 5.26971 6.42018 5.22656 6.27469 5.22656C6.17807 5.22652 6.0824 5.24552 5.99313 5.28247C5.90386 5.31943 5.82275 5.37361 5.75443 5.44193C5.68611 5.51025 5.63193 5.59136 5.59497 5.68063C5.55802 5.7699 5.53902 5.86557 5.53906 5.96219Z" fill="#B6DCEA"/>
<path d="M8.60657 5.96219C8.60657 6.10762 8.64967 6.24978 8.73043 6.37072C8.8112 6.49166 8.92599 6.58594 9.06032 6.64167C9.19465 6.69739 9.34248 6.71205 9.48513 6.68379C9.62779 6.65553 9.75886 6.58563 9.86181 6.48291C9.96475 6.38018 10.0349 6.24925 10.0635 6.10666C10.0921 5.96406 10.0777 5.8162 10.0223 5.68176C9.96683 5.54731 9.87279 5.43232 9.75202 5.3513C9.63125 5.27028 9.48918 5.22687 9.34375 5.22656C9.24701 5.22632 9.15116 5.24517 9.06172 5.28203C8.97227 5.31889 8.89097 5.37304 8.82249 5.44138C8.754 5.50972 8.69968 5.5909 8.66263 5.68027C8.62558 5.76964 8.60653 5.86544 8.60657 5.96219Z" fill="#B6DCEA"/>
<path d="M11.6741 5.96219C11.6741 6.10768 11.7172 6.24991 11.798 6.37088C11.8789 6.49185 11.9938 6.58614 12.1282 6.64182C12.2626 6.69749 12.4105 6.71206 12.5532 6.68368C12.6959 6.65529 12.827 6.58523 12.9299 6.48235C13.0327 6.37947 13.1028 6.2484 13.1312 6.1057C13.1596 5.963 13.145 5.81509 13.0893 5.68068C13.0336 5.54626 12.9394 5.43137 12.8184 5.35054C12.6974 5.26971 12.5552 5.22656 12.4097 5.22656C12.3131 5.22652 12.2174 5.24552 12.1281 5.28247C12.0389 5.31943 11.9578 5.37361 11.8894 5.44193C11.8211 5.51025 11.7669 5.59136 11.73 5.68063C11.693 5.7699 11.674 5.86557 11.6741 5.96219Z" fill="#B6DCEA"/>
<path d="M37.8125 10.2834H2.1875C2.04246 10.2834 1.90336 10.2258 1.8008 10.1233C1.69824 10.0207 1.64063 9.88161 1.64062 9.73657C1.64063 9.59153 1.69824 9.45243 1.8008 9.34987C1.90336 9.24731 2.04246 9.1897 2.1875 9.1897H37.8125C37.9575 9.1897 38.0966 9.24731 38.1992 9.34987C38.3018 9.45243 38.3594 9.59153 38.3594 9.73657C38.3594 9.88161 38.3018 10.0207 38.1992 10.1233C38.0966 10.2258 37.9575 10.2834 37.8125 10.2834Z" fill="#B6DCEA"/>
</svg>
